<svg width="110" height="32" viewBox="0 0 87 26" fill="none" xmlns="http://www.w3.org/2000/svg"><g clip-path="url(#clip0_2195_4351)"><path d="M32.5067 23.5777L32.5636 23.6815H32.682H32.8154H32.9363L32.9925 23.5745L38.9933 12.1503L39.1472 11.8573H38.8162H35.8289H35.6984L35.6458 11.9768L32.8339 18.3738L29.7687 11.9709L29.7143 11.8573H29.5883H26.4145H26.0766L26.2391 12.1535L32.5067 23.5777Z" fill="#030916" stroke="#030916" stroke-width="0.4"></path><path d="M42.508 12.2004L42.5079 12.2004C41.5349 12.7313 40.771 13.4599 40.2186 14.3858C39.6653 15.3132 39.3902 16.3544 39.3902 17.5037C39.3902 18.7393 39.6687 19.8257 40.2329 20.7557C40.7939 21.6824 41.5596 22.394 42.526 22.8892C43.491 23.3838 44.5763 23.6285 45.7775 23.6285C47.0505 23.6285 48.1664 23.3611 49.1172 22.8185C50.0629 22.2788 50.8044 21.5453 51.3387 20.619L51.3387 20.619C51.8731 19.6919 52.1387 18.6516 52.1387 17.5037C52.1387 16.3562 51.8771 15.3171 51.3522 14.3898L51.3521 14.3896C50.8265 13.463 50.0889 12.7333 49.1422 12.2016L49.1421 12.2016C48.1918 11.6685 47.0682 11.4057 45.8307 11.4057C44.5923 11.4057 43.4835 11.6689 42.508 12.2004ZM42.94 19.3088L42.9399 19.3086C42.6663 18.8041 42.5229 18.2406 42.5115 17.6126V17.5305C42.5115 16.8884 42.6548 16.3015 42.9412 15.7647L42.9413 15.7646C43.2281 15.2265 43.6139 14.8007 44.1006 14.4834C44.5814 14.1701 45.1296 14.0113 45.7513 14.0113C46.7107 14.0113 47.4868 14.3485 48.0965 15.0218C48.7093 15.6992 49.0181 16.5316 49.0181 17.5313C49.0181 18.531 48.7093 19.3584 48.0974 20.0265L48.0973 20.0265C47.4887 20.6916 46.7125 21.0244 45.7513 21.0244C45.1469 21.0244 44.6016 20.87 44.11 20.5629C43.6156 20.254 43.2258 19.8374 42.94 19.3088Z" fill="#030916" stroke="#030916" stroke-width="0.4"></path><path d="M56.6165 12.2004L56.6164 12.2004C55.6434 12.7313 54.8795 13.4599 54.3271 14.3858C53.7738 15.3132 53.4987 16.3544 53.4987 17.5037C53.4987 18.7393 53.7772 19.8257 54.3414 20.7557C54.9024 21.6824 55.6681 22.394 56.6345 22.8892C57.5995 23.3838 58.6848 23.6285 59.886 23.6285C61.159 23.6285 62.2749 23.3611 63.2257 22.8185C64.1714 22.2788 64.9129 21.5453 65.4472 20.619L65.4472 20.619C65.9816 19.6919 66.2472 18.6516 66.2472 17.5037C66.2472 16.3562 65.9856 15.3171 65.4607 14.3898L65.4606 14.3896C64.935 13.463 64.1974 12.7333 63.2507 12.2016L63.2506 12.2016C62.3003 11.6685 61.1767 11.4057 59.9392 11.4057C58.7008 11.4057 57.592 11.6689 56.6165 12.2004ZM57.0485 19.3088L57.0484 19.3086C56.763 18.7822 56.6192 18.1915 56.6192 17.5305C56.6192 16.8884 56.7625 16.3015 57.049 15.7647L57.049 15.7646C57.3359 15.2265 57.7216 14.8008 58.2083 14.4834C58.6891 14.1701 59.2374 14.0113 59.8591 14.0113C60.8185 14.0113 61.5945 14.3485 62.2043 15.0218C62.8171 15.6992 63.1259 16.5316 63.1259 17.5313C63.1259 18.531 62.8171 19.3584 62.2051 20.0265L62.2051 20.0265C61.5964 20.6916 60.8202 21.0244 59.8591 21.0244C59.2554 21.0244 58.7102 20.8701 58.2185 20.5629C57.7241 20.254 57.3343 19.8374 57.0485 19.3088Z" fill="#030916" stroke="#030916" stroke-width="0.4"></path><path d="M68.7677 2.31849H68.5677V2.51849V23.1628V23.3628H68.7677H71.4613H71.6613V23.1628V2.51849V2.31849H71.4613H68.7677Z" fill="#030916" stroke="#030916" stroke-width="0.4"></path><path d="M76.2087 6.99459H76.0087V7.19459V11.8834H74.2351H74.0351V12.0834V14.1823V14.3823H74.2351H76.0087V23.1628V23.3628H76.2087H78.9292H79.1292V23.1628V14.3823H81.9165H82.1165V14.1823V12.0834V11.8834H81.9165H79.1292V7.19459V6.99459H78.9292H76.2087Z" fill="#030916" stroke="#030916" stroke-width="0.4"></path><path d="M85.3211 21.8106C85.5508 20.8411 84.9479 19.8709 83.9764 19.6424C83.0048 19.414 82.0301 20.0133 81.8004 20.9828C81.5707 21.9523 82.1735 22.9225 83.1451 23.151C84.1167 23.3794 85.0914 22.7801 85.3211 21.8106Z" fill="#FFD20A" stroke="#FFD20A" stroke-width="0.4"></path><path d="M16.7076 1.58964L16.9538 1.14445H16.445H14.1351H13.9582L13.8726 1.29924L12.9512 2.96489H0.801308H0.280695L0.541749 3.41532L10.5361 20.6598L10.7935 21.1039L11.0541 20.6617L18.2177 8.50757L18.4843 8.05524H17.9593H13.1318L16.7076 1.58964ZM9.19973 10.6705H13.9L10.8121 15.9097L4.82616 5.58013H11.506L8.9372 10.2253L8.69102 10.6705H9.19973Z" fill="#FFD20A" stroke="#FFD20A" stroke-width="0.6"></path><path d="M11.7192 22.3899L11.632 22.5403L11.7192 22.6907L12.8873 24.706L13.1468 25.1538L13.4064 24.706L25.7459 3.41531L26.007 2.96488H25.4863H17.1996H17.0223L16.9368 3.1201L15.8264 5.13534L15.5813 5.58012H16.0892H21.4615L11.7192 22.3899Z" fill="#030916" stroke="#030916" stroke-width="0.6"></path></g><defs><clipPath id="clip0_2195_4351"><rect width="87" height="26" fill="white"></rect></clipPath></defs></svg>
